<?xml version="1.0" encoding="UTF-8"?>
<svg width="700pt" height="700pt" version="1.1" viewBox="0 0 700 700" xmlns="http://www.w3.org/2000/svg" fill="#ea580c">
 <path d="m346.01 546.09c-10.418 0-19.688 6.5898-23.078 16.434-0.60156 1.8594-0.27344 3.9102 0.875 5.4961 1.1484 1.5586 2.9805 2.4883 4.9492 2.4883h34.535c1.9414 0 3.8008-0.92969 4.9492-2.4883 1.1484-1.5859 1.4766-3.6367 0.875-5.4961-3.418-9.8438-12.688-16.434-23.105-16.434z"/>
 <path d="m416.83 546.09c-10.418 0-19.688 6.5898-23.078 16.434-0.60156 1.8594-0.30078 3.9102 0.875 5.4961 1.1484 1.5586 2.9805 2.4883 4.9492 2.4883h34.535c1.9414 0 3.8008-0.92969 4.9492-2.4883 1.1484-1.5859 1.4766-3.6367 0.875-5.4961-3.418-9.8438-12.688-16.434-23.105-16.434z"/>
 <path d="m369.55 292.5c-0.60156-1.5039-1.8047-2.6797-3.3086-3.3086-1.5039-0.60156-3.1719-0.60156-4.6758 0-1.5039 0.62891-2.6797 1.832-3.2812 3.3359-0.62891 1.5039-0.62891 3.1719 0 4.6758 3.582 8.8594 12.223 14.656 21.82 14.602 0.49219 0 0.90234-0.054687 1.3398-0.082031 0.4375 0.027344 0.84766 0.082031 1.3398 0.082031h-0.027344c9.5703 0.054688 18.211-5.7422 21.793-14.602 1.3125-3.1172-0.16406-6.6992-3.2812-7.9844-3.1172-1.3125-6.6719 0.16406-7.9844 3.2812-1.0391 2.707-3.0898 4.9219-5.7422 6.0977v-21.629c9.543-2.0508 16.598-8.6406 16.598-16.57 0-9.543-10.172-12.004-22.695-12.004-12.523 0-22.695 2.4609-22.695 12.004 0 7.9297 7.0547 14.547 16.598 16.57v21.602l-0.027344 0.027344c-2.6523-1.2031-4.7305-3.3906-5.7695-6.0977z"/>
 <path d="m250.74 280.55c-0.16406 2.1328 0.95703 4.1562 2.8438 5.1406 1.9141 0.98438 4.2109 0.73828 5.8516-0.62891l0.24609-0.19141v-0.027344c1.4219-1.0938 3.3359-1.3945 5.0586-0.76562 1.6953 0.60156 2.9531 2.0508 3.3633 3.8281 12.988 54.496 80.613 59.445 104.73 59.445h17.199c24.145 0 91.762-4.9492 104.73-59.445 0.38281-1.7773 1.6406-3.2266 3.3633-3.8281 1.6953-0.62891 3.6094-0.32812 5.0586 0.76562 0.082031 0.054687 0.16406 0.13672 0.24609 0.19141v0.027344c1.6406 1.3672 3.9375 1.6133 5.8242 0.62891 1.9141-0.98438 3.0352-3.0078 2.8711-5.1406-1.8867-22.859-7-46.621-18.348-62.836h-0.027343c-4.7578-6.8086-4.457-15.941 0.76562-22.422 10.855-12.195 11.922-30.297 2.5703-43.695-7.0273-12.086-19.305-20.18-33.168-21.93-11.266-1.0664-24.992 2.4336-35.109 20.453v0.027343c-3.8281 6.9453-11.703 10.664-19.523 9.2422-18.402-3.6367-37.324-3.6367-55.699 0-7.875 1.4219-15.75-2.3516-19.605-9.3242-10.418-18.512-24.664-21.629-36.094-20.262v-0.027343c-12.387 1.8047-23.434 8.7773-30.379 19.223-14.055 20.098-7.1914 36.34 0.84766 46.293 5.25 6.3164 5.6328 15.34 0.98438 22.094-11.512 16.242-16.68 40.168-18.594 63.164zm190.97-111.37c6.9727-20.125 15.723-20.125 18.621-20.125 0.62891 0 1.2305 0 1.75 0.054688h-0.027344c7.793 1.1758 14.602 5.9062 18.43 12.797 8.5586 13.781-1.5039 23.352-8.1484 27.699l-4.293 2.7344h-0.027343c-8.6133-7.3555-17.773-14.055-27.398-20.016zm-7.2734 39.375h-0.027344c5.5781 0 10.582 3.3359 12.742 8.4766 2.1328 5.1406 0.95703 11.047-2.9805 14.984s-9.8711 5.1133-15.012 2.9805c-5.1406-2.1328-8.4766-7.1641-8.4766-12.715 0.027343-7.5742 6.1523-13.727 13.727-13.727zm-86.711 51.871c0-8.5859 4.4023-22.996 33.688-22.996 29.312 0 33.688 14.41 33.688 22.996h0.027344c0 2.9531-0.51953 5.8789-1.5586 8.6406 6.3984 11.43 6.2891 25.375-0.32812 36.695-6.5898 11.32-18.73 18.266-31.828 18.266s-25.211-6.9453-31.828-18.266c-6.6172-11.32-6.7266-25.266-0.30078-36.695-1.0391-2.7617-1.5586-5.6875-1.5586-8.6406zm-19.934-51.871c5.5781 0 10.582 3.3359 12.715 8.4766 2.1328 5.1406 0.95703 11.047-2.9805 14.984-3.9102 3.9375-9.8438 5.1133-14.984 2.9805-5.1406-2.1328-8.4766-7.1641-8.4766-12.715 0-7.5742 6.1523-13.727 13.727-13.727zm-45.418-46.648c3.8281-6.8906 10.609-11.621 18.402-12.797 0.54687-0.054688 1.1211-0.054688 1.75-0.054688 2.8711 0 11.621 0 18.621 20.125l1.0664 3.1172v0.027343c-9.625 5.9609-18.785 12.66-27.398 20.016l-4.293-2.7344c-6.6445-4.3477-16.707-13.918-8.1484-27.699z"/>
 <path d="m485.08 335.29c-21.547 18.812-54.168 29.148-95.047 29.148h-17.199c-40.879 0-73.5-10.363-95.047-29.148-7.2188 10.363-48.945 74.863-21.82 154.82 12.414 36.586 33.688 55.426 54.168 64.969h-0.027343c6.207-14.328 20.316-23.625 35.902-23.652 5.6328 0 11.211 1.2031 16.324 3.582-6.125-26.387-21.164-49.848-42.547-66.473l5.2773-19.523v-0.027343c1.5859 2.4883 3.4727 4.7578 5.6055 6.7539 0 0 17.227 18.512 28.52 17.281s10.637-16.352 8.75-39.457c-1.7227-17.309-7.3555-34.016-16.434-48.863 19.852 2.707 39.977 2.707 59.855 0-9.1055 14.848-14.738 31.555-16.461 48.863-1.9141 23.105-2.543 38.254 8.75 39.457 11.293 1.2305 28.52-17.281 28.52-17.281 2.1602-1.9961 4.0469-4.2656 5.6055-6.7539l5.2773 19.523v0.027344c-21.383 16.625-36.395 40.086-42.52 66.473 5.1133-2.3789 10.664-3.582 16.297-3.582 15.613 0.027344 29.723 9.3242 35.902 23.652 20.453-9.5156 41.754-28.383 54.168-64.969 27.098-79.953-14.602-144.46-21.82-154.82z"/>
 <path d="m239.78 495.58c-7.9297-23.105-11.211-47.578-9.625-71.996-5.3047-16.57-17.527-30.051-33.523-36.996-1.6406-0.76563-3.582-0.51953-5.0039 0.62891-1.4219 1.1484-2.0508 2.9805-1.6953 4.7578 3.5547 15.641 9.2695 49.52-0.84766 74.129v-0.027343c-8.3398 19.305-6.3438 41.48 5.332 58.953 12.168 17.527 36.34 32.566 83.812 29.695-17.965-15.832-31.254-36.285-38.445-59.145z"/>
</svg>
